HIERARCHY
ROOT root
{
	OFFSET	0	13.1	24.9
	CHANNELS 6  Xposition Yposition Zposition Xrotation Yrotation Zrotation
	JOINT spine_1
	{
		OFFSET	0	9.99999	0
		CHANNELS 3  Xrotation Yrotation Zrotation
		JOINT spine_2
		{
			OFFSET	0	112	-10
			CHANNELS 3  Xrotation Yrotation Zrotation
			JOINT spine_3
			{
				OFFSET	0	206.5	19.3
				CHANNELS 3  Xrotation Yrotation Zrotation
				JOINT spine_4
				{
					OFFSET	0	110.4	14.6
					CHANNELS 3  Xrotation Yrotation Zrotation
					JOINT neck_1
					{
						OFFSET	0	71.8	-50.3
						CHANNELS 3  Xrotation Yrotation Zrotation
						JOINT neck_2
						{
							OFFSET	0	86.2	-25.8
							CHANNELS 3  Xrotation Yrotation Zrotation
							JOINT head_ee
							{
								OFFSET	0	179.8	-8.7
								CHANNELS 3  Xrotation Yrotation Zrotation
								End Site
								{
									OFFSET	1	0	0
								}
							}
						}
					}
					JOINT left_clavicle
					{
						OFFSET	-43.2	22.4	-70.8
						CHANNELS 3  Xrotation Yrotation Zrotation
						JOINT left_shoulder
						{
							OFFSET	-93.9	-5.79999	48.7
							CHANNELS 3  Xrotation Yrotation Zrotation
							JOINT left_elbow
							{
								OFFSET	-291.4	-30.8	15.2
								CHANNELS 3  Xrotation Yrotation Zrotation
								JOINT left_lowarm_twist
								{
									OFFSET	-110.7	-3.89999	13.6
									CHANNELS 3  Xrotation Yrotation Zrotation
									JOINT left_hand
									{
										OFFSET	-110.7	-3.89999	13.6
										CHANNELS 3  Xrotation Yrotation Zrotation
										JOINT left_ee
										{
											OFFSET	-80.8	-5.10001	12.1
											CHANNELS 3  Xrotation Yrotation Zrotation
											End Site
											{
												OFFSET	1	0	0
											}
										}
									}
								}
							}
						}
					}
					JOINT right_clavicle
					{
						OFFSET	43.2	22.4	-70.8
						CHANNELS 3  Xrotation Yrotation Zrotation
						JOINT right_shoulder
						{
							OFFSET	93.9	-5.79999	48.7
							CHANNELS 3  Xrotation Yrotation Zrotation
							JOINT right_elbow
							{
								OFFSET	291.4	-30.8	15.2
								CHANNELS 3  Xrotation Yrotation Zrotation
								JOINT right_lowarm_twist
								{
									OFFSET	110.7	-3.89999	13.6
									CHANNELS 3  Xrotation Yrotation Zrotation
									JOINT right_hand
									{
										OFFSET	110.7	-3.89999	13.6
										CHANNELS 3  Xrotation Yrotation Zrotation
										JOINT right_ee
										{
											OFFSET	80.8	-5.10001	12.1
											CHANNELS 3  Xrotation Yrotation Zrotation
											End Site
											{
												OFFSET	1	0	0
											}
										}
									}
								}
							}
						}
					}
				}
			}
		}
	}
	JOINT left_hip
	{
		OFFSET	-82.8	-127.5	0.300001
		CHANNELS 3  Xrotation Yrotation Zrotation
		JOINT left_knee
		{
			OFFSET	-28.2	-396.7	2.2
			CHANNELS 3  Xrotation Yrotation Zrotation
			JOINT left_ankle
			{
				OFFSET	-11.7	-411.3	35.4
				CHANNELS 3  Xrotation Yrotation Zrotation
				JOINT left_toes
				{
					OFFSET	0	-60	-88.6
					CHANNELS 3  Xrotation Yrotation Zrotation
					JOINT left_foot_ee
					{
						OFFSET	-22.5	-16.5	-42.2
						CHANNELS 3  Xrotation Yrotation Zrotation
						End Site
						{
							OFFSET	1	0	0
						}
					}
				}
			}
		}
	}
	JOINT right_hip
	{
		OFFSET	82.8	-127.5	0.300001
		CHANNELS 3  Xrotation Yrotation Zrotation
		JOINT right_knee
		{
			OFFSET	28.2	-396.7	2.2
			CHANNELS 3  Xrotation Yrotation Zrotation
			JOINT right_ankle
			{
				OFFSET	11.7	-411.3	35.4
				CHANNELS 3  Xrotation Yrotation Zrotation
				JOINT right_toes
				{
					OFFSET	0	-60	-88.6
					CHANNELS 3  Xrotation Yrotation Zrotation
					JOINT right_foot_ee
					{
						OFFSET	22.5	-16.5	-42.2
						CHANNELS 3  Xrotation Yrotation Zrotation
						End Site
						{
							OFFSET	1	0	0
						}
					}
				}
			}
		}
	}
}
MOTION
Frames: 12
Frame Time: 0.02
2537.44025859 766.519 -1529.31735618 116.465079572 83.6896655967 -121.80518681 -2.92215 0.294215 2.57579 -2.91846 0.129771 2.58928 -2.908 -0.546919 2.53422 -2.91694 -0.139962 2.58875 2.28808 13.2777 1.22529 2.75486 22.2845 2.31239 -0.0 0.0 -0.0 0.570072 0.493842 1.15243 -19.2558 -23.1034 61.1782 0.759104 -20.6081 0.13801 -16.0186 -0.831069 1.86539 -0.0719645 19.0849 7.28945 -0.0 0.0 -0.0 10.6931 -14.7531 -19.4892 -19.28 45.4324 -45.0567 1.79603 41.6556 -0.683292 -59.1934 5.18261 -5.07536 5.65275 15.1188 -33.1442 0.0 0.0 0.0 -0.0685748 -10.3897 -2.67118 -21.4059 0.276282 3.25421 28.7262 7.26384 -3.75092 -12.4417 0.0 0.0 -0.0 0.0 -0.0 3.56658 14.7408 -3.9103 -10.1925 -0.283621 -1.53646 8.74835 -11.4269 1.25106 -6.1 0.0 0.0 0.0 0.0 0.0 
2535.42229699 766.519 -1518.69184201 132.083327115 82.3814260334 -137.53706851 -2.92215 0.294215 2.57579 -2.91846 0.129771 2.58928 -2.908 -0.546919 2.53422 -2.91694 -0.139962 2.58875 2.28808 13.2777 1.22529 2.75486 22.2845 2.31239 -0.0 0.0 -0.0 0.570072 0.493842 1.15243 -19.2558 -23.1034 61.1782 0.759104 -20.6081 0.13801 -16.0186 -0.831069 1.86539 -0.0719645 19.0849 7.28945 -0.0 0.0 -0.0 10.6931 -14.7531 -19.4892 -19.28 45.4324 -45.0567 1.79603 41.6556 -0.683292 -59.1934 5.18261 -5.07536 5.65275 15.1188 -33.1442 0.0 0.0 0.0 -0.0685748 -10.3897 -2.67118 -21.4059 0.276282 3.25421 28.7262 7.26384 -3.75092 -12.4417 0.0 0.0 -0.0 0.0 -0.0 3.56658 14.7408 -3.9103 -10.1925 -0.283621 -1.53646 8.74835 -11.4269 1.25106 -6.1 0.0 0.0 0.0 0.0 0.0 
2515.18215223 775.19 -1527.71784277 138.078201913 82.5235554937 -143.192089029 -3.20587 0.333292 2.41586 -3.20264 0.178936 2.43216 -3.19064 -0.47038 2.39296 -3.19862 -0.0866711 2.43719 -2.39258 13.2431 4.28218 -2.17183 20.6575 6.25686 -0.0 0.0 -0.0 -0.00358261 -1.6654 -0.205342 -20.0022 -25.0691 62.904 0.683971 -18.7174 0.112726 -13.3477 -0.656628 1.57141 0.291286 27.6857 12.5149 -0.0 0.0 -0.0 11.0798 -22.8572 -18.6124 -11.0561 42.8325 -51.0465 2.51425 51.2309 -1.20561 -58.8647 5.14191 -5.06444 4.31149 11.2885 -25.0227 0.0 0.0 0.0 4.04262 -7.3018 -4.22077 -15.3691 0.322042 2.32951 18.5226 11.7441 -2.55374 -13.4905 0.0 0.0 -0.0 0.0 -0.0 3.41174 12.1442 -5.47191 -6.50225 -0.212588 -0.974726 9.21135 -10.2926 1.31395 -5.66325 0.0 0.0 0.0 0.0 0.0 
2493.86805805 770.612 -1523.65753886 129.902780186 83.0962381779 -134.318988957 -3.44006 0.212164 2.09038 -3.43764 0.0787471 2.09964 -3.43146 -0.4877 2.04376 -3.43725 -0.15888 2.09511 -0.23893 13.1173 2.29396 0.0802966 21.5947 3.8349 -0.0 0.0 -0.0 -0.106109 -1.99529 -0.445849 -20.9287 -26.4046 62.8619 0.830945 -22.3732 0.164332 -11.3332 -0.53426 1.34455 0.683366 27.1198 14.5543 -0.0 0.0 -0.0 10.6239 -25.3648 -17.3769 -8.929 40.8896 -52.2915 2.67723 52.9737 -1.33423 -57.2273 4.94008 -5.00653 3.53739 10.2466 -19.8981 0.0 0.0 0.0 6.05158 -6.85468 -4.11339 -13.2855 0.315196 2.00993 14.5286 10.3992 -2.03317 -14.5895 0.0 0.0 -0.0 0.0 -0.0 0.0633594 10.3083 -5.21207 -7.03218 -0.225012 -1.0551 8.94468 -11.0649 1.27785 -5.64123 0.0 0.0 0.0 0.0 0.0 
2457.19827423 765.284 -1531.11620085 87.4240795307 83.1359726216 -89.9149992542 -4.5097 0.228179 1.23876 -4.50886 0.148898 1.25077 -4.50409 -0.215455 1.24103 -4.50624 -0.0167693 1.25948 4.42298 11.2768 0.893281 4.814 18.6856 1.5778 -0.0 0.0 -0.0 1.27822 -3.95198 2.07501 -20.3744 -28.6715 60.5978 1.03906 -27.2351 0.251719 -9.80126 -0.446602 1.16927 0.899233 23.7441 14.7513 -0.0 0.0 -0.0 9.74734 -24.1261 -16.3404 -9.15892 37.4755 -52.5055 2.22934 47.8324 -0.988764 -55.0429 4.6735 -4.92032 1.90892 6.49072 -10.181 0.0 0.0 0.0 3.67678 -7.97684 -4.72928 -11.4472 0.299511 1.72831 -1.26761 2.94342 0.186915 -15.8035 0.0 0.0 -0.0 0.0 -0.0 -0.299326 8.24542 -5.38749 -13.4017 -0.315884 -2.02773 10.4386 -10.2284 1.48276 -5.13945 0.0 0.0 0.0 0.0 0.0 
2457.21304481 765.284 -1531.20466773 87.301714402 83.1352941498 -89.7917506637 -4.5097 0.228179 1.23876 -4.50886 0.148898 1.25077 -4.50409 -0.215455 1.24103 -4.50624 -0.0167693 1.25948 4.42298 11.2768 0.893281 4.814 18.6856 1.5778 -0.0 0.0 -0.0 1.27822 -3.95198 2.07501 -20.3744 -28.6715 60.5978 1.03906 -27.2351 0.251719 -9.80126 -0.446602 1.16927 0.899233 23.7441 14.7513 -0.0 0.0 -0.0 9.74734 -24.1261 -16.3404 -9.15892 37.4755 -52.5055 2.22934 47.8324 -0.988764 -55.0429 4.6735 -4.92032 1.90892 6.49072 -10.181 0.0 0.0 0.0 3.67678 -7.97684 -4.72928 -11.4472 0.299511 1.72831 -1.26761 2.94342 0.186915 -15.8035 0.0 0.0 -0.0 0.0 -0.0 -0.299326 8.24542 -5.38749 -13.4017 -0.315884 -2.02773 10.4386 -10.2284 1.48276 -5.13945 0.0 0.0 0.0 0.0 0.0 
2448.34506559 762.809 -1535.97764625 73.1063450373 82.6262479735 -75.3503716584 -4.48479 0.372768 1.16613 -4.48409 0.297814 1.18748 -4.47639 -0.0540275 1.22306 -4.47845 0.139796 1.21625 4.54847 10.7219 1.21086 4.8849 17.4293 1.90808 -0.0 0.0 -0.0 1.80129 -4.62818 3.05393 -19.5794 -29.1084 58.6673 1.03483 -27.1401 0.249786 -9.87139 -0.450512 1.17734 0.5011 22.6846 12.0345 -0.0 0.0 -0.0 9.5447 -22.3627 -16.3469 -11.7924 36.7118 -51.7564 1.92198 43.5895 -0.768592 -55.2462 4.69817 -4.92877 1.76802 5.03864 -9.82944 0.0 0.0 0.0 3.31015 -8.31932 -4.70881 -11.1782 0.296458 1.68715 -2.5313 1.59917 0.375271 -16.3625 0.0 0.0 -0.0 0.0 -0.0 0.788789 7.39875 -5.16868 -17.3234 -0.317899 -2.62932 14.179 -9.9638 1.98626 -4.93745 0.0 0.0 0.0 0.0 0.0 
2447.92710664 762.809 -1533.56026799 76.0521613032 82.7306728757 -78.3203917395 -4.48479 0.372768 1.16613 -4.48409 0.297814 1.18748 -4.47639 -0.0540275 1.22306 -4.47845 0.139796 1.21625 4.54847 10.7219 1.21086 4.8849 17.4293 1.90808 -0.0 0.0 -0.0 1.80129 -4.62818 3.05393 -19.5794 -29.1084 58.6673 1.03483 -27.1401 0.249786 -9.87139 -0.450512 1.17734 0.5011 22.6846 12.0345 -0.0 0.0 -0.0 9.5447 -22.3627 -16.3469 -11.7924 36.7118 -51.7564 1.92198 43.5895 -0.768592 -55.2462 4.69817 -4.92877 1.76802 5.03864 -9.82944 0.0 0.0 0.0 3.31015 -8.31932 -4.70881 -11.1782 0.296458 1.68715 -2.5313 1.59917 0.375271 -16.3625 0.0 0.0 -0.0 0.0 -0.0 0.788789 7.39875 -5.16868 -17.3234 -0.317899 -2.62932 14.179 -9.9638 1.98626 -4.93745 0.0 0.0 0.0 0.0 0.0 
2444.77713283 758.711 -1538.63671129 65.909695521 82.5697076336 -68.5679445806 -4.38016 0.477561 1.39315 -4.37917 0.387952 1.42071 -4.36737 -0.031491 1.47238 -4.37034 0.201414 1.45888 4.62491 10.4049 1.13469 4.94424 16.9351 1.80163 -0.0 0.0 -0.0 1.95687 -4.896 3.34106 -19.2825 -29.3135 57.8191 1.03559 -27.1573 0.250134 -10.0198 -0.458817 1.19441 0.206395 22.2309 10.1284 -0.0 0.0 -0.0 9.46985 -21.3157 -16.4038 -12.8065 36.4301 -51.4242 1.80111 41.736 -0.686673 -55.4917 4.72801 -4.93886 1.73672 4.15817 -9.98342 0.0 0.0 0.0 1.19784 -8.42951 -4.76473 -11.1146 0.295709 1.67743 -1.20041 1.1633 0.177598 -16.4741 0.0 0.0 -0.0 0.0 -0.0 1.57625 5.52573 -5.35284 -19.6553 -0.29958 -2.98662 16.564 -9.85362 2.2981 -4.83689 0.0 0.0 0.0 0.0 0.0 
2445.22269407 758.711 -1541.03720185 63.2631388283 82.4038369451 -65.8984806974 -4.38016 0.477561 1.39315 -4.37917 0.387952 1.42071 -4.36737 -0.031491 1.47238 -4.37034 0.201414 1.45888 4.62491 10.4049 1.13469 4.94424 16.9351 1.80163 -0.0 0.0 -0.0 1.95687 -4.896 3.34106 -19.2825 -29.3135 57.8191 1.03559 -27.1573 0.250134 -10.0198 -0.458817 1.19441 0.206395 22.2309 10.1284 -0.0 0.0 -0.0 9.46985 -21.3157 -16.4038 -12.8065 36.4301 -51.4242 1.80111 41.736 -0.686673 -55.4917 4.72801 -4.93886 1.73672 4.15817 -9.98342 0.0 0.0 0.0 1.19784 -8.42951 -4.76473 -11.1146 0.295709 1.67743 -1.20041 1.1633 0.177598 -16.4741 0.0 0.0 -0.0 0.0 -0.0 1.57625 5.52573 -5.35284 -19.6553 -0.29958 -2.98662 16.564 -9.85362 2.2981 -4.83689 0.0 0.0 0.0 0.0 0.0 
2445.07974701 758.711 -1540.27683068 64.0891020375 82.4581378205 -66.731703495 -4.38016 0.477561 1.39315 -4.37917 0.387952 1.42071 -4.36737 -0.031491 1.47238 -4.37034 0.201414 1.45888 4.62491 10.4049 1.13469 4.94424 16.9351 1.80163 -0.0 0.0 -0.0 1.95687 -4.896 3.34106 -19.2825 -29.3135 57.8191 1.03559 -27.1573 0.250134 -10.0198 -0.458817 1.19441 0.206395 22.2309 10.1284 -0.0 0.0 -0.0 9.46985 -21.3157 -16.4038 -12.8065 36.4301 -51.4242 1.80111 41.736 -0.686673 -55.4917 4.72801 -4.93886 1.73672 4.15817 -9.98342 0.0 0.0 0.0 1.19784 -8.42951 -4.76473 -11.1146 0.295709 1.67743 -1.20041 1.1633 0.177598 -16.4741 0.0 0.0 -0.0 0.0 -0.0 1.57625 5.52573 -5.35284 -19.6553 -0.29958 -2.98662 16.564 -9.85362 2.2981 -4.83689 0.0 0.0 0.0 0.0 0.0 
2438.45438792 756.156 -1545.28795998 62.662920876 82.2530548508 -64.8260669412 -4.3291 0.506476 1.16161 -4.32845 0.431538 1.19148 -4.31788 0.0765081 1.2649 -4.32001 0.2753 1.23695 4.67644 10.1806 1.0771 4.98405 16.5896 1.72238 -0.0 0.0 -0.0 1.83262 -4.96126 3.08601 -19.329 -29.366 56.9877 1.03469 -27.1371 0.249723 -10.136 -0.465357 1.20777 -0.00493921 21.9178 8.76442 -0.0 0.0 -0.0 9.45391 -20.5559 -16.499 -13.9208 36.368 -51.3158 1.71536 40.3524 -0.63036 -55.6806 4.75099 -4.94654 1.72397 3.53782 -10.1539 0.0 0.0 0.0 0.294812 -8.46423 -4.50751 -10.8202 0.292095 1.63239 -0.264299 0.860632 0.039042 -16.5527 0.0 0.0 -0.0 0.0 -0.0 1.40724 4.22448 -5.18541 -21.774 -0.270342 -3.31039 18.232 -9.77984 2.51158 -4.73959 0.0 0.0 0.0 0.0 0.0 
